<?xml version="1.0" encoding="UTF-8"?>
<svg id="_Слой_2" data-name="Слой 2" xmlns="http://www.w3.org/2000/svg"
  xmlns:xlink="http://www.w3.org/1999/xlink" viewBox="0 0 715.42 715.42">
  <defs>
    <style>
      .cls-1 {
      fill: #fff;
      }

      .cls-2 {
      fill: url(#_Безымянный_градиент_6);
      }
    </style>
    <linearGradient id="_Безымянный_градиент_6" data-name="Безымянный градиент 6" x1="149.56"
      y1="60.54" x2="569.31" y2="659.79" gradientUnits="userSpaceOnUse">
      <stop offset="0" stop-color="#24c368" />
      <stop offset="1" stop-color="#0ab8cc" />
    </linearGradient>
  </defs>
  <g id="_Слой_1-2" data-name="Слой 1">
    <path class="cls-2"
      d="M715.42,357.71c0,197.54-160.14,357.71-357.71,357.71-177.52,0-324.86-129.37-352.92-298.94-2.12-12.96-3.57-26.15-4.28-39.52-.35-6.37-.52-12.8-.52-19.26C0,160.14,160.17,0,357.71,0s357.71,160.14,357.71,357.71Z" />

    <g>
      <path class="cls-1"
        d="M252.73,209.93c42.12-36.39,95.03-54.15,147.84-54.25-116.51,18.62-199.12,133.9-173.05,258.72,1.72,7.83,8.31,24.16,8.5,30.47.19,9.65-9.26,12.13-3.63,28.84,10.7,31.32,59.88,21.39,55.77-14.04-2.2-18.34-20.82-21.01-23.4-27.22-12.32-30.66-12.41-88.72-3.25-120.33,32.66-113.27,170.47-157.96,265.02-87.86,9.17,6.88,28.94,24.54,34.57,34.09.76,1.34,2.01,3.53,2.01,3.53l-144.97,119.76-88.15-37.53,89.68,121.96,167.23-217.27,6.3-8.21c-4.68-9.93-9.84-19.67-15.47-29.13-43.17-72.87-112.69-130.27-200.84-137.33-100.09-8.02-226.53,45.65-258.91,147.36-12.32,38.58,0,66.76-18.05,105.05-8.69,18.24-36.48,55.77-32.57,75.54,2.67,13.47,22.06,13.37,24.74,21.97,3.63,15.66-9.65,19.67-.29,35.05,7.83,12.8,2.01,5.35,3.44,17.38.67,5.35,7.74,12.22,8.79,19.29,3.06,20.92-19.29,48.42,13.47,63.03,24.74,11.08,32.95.19,52.72.57,26.74.48,68.38,25.59,68.95,55.39,2.77,2.96,6.21.38,7.74.38,42.88,1.62,86.05-1.15,128.93,0l-60.36-17.48c-158.15-65.61-194.25-274.48-62.75-387.74Z" />
      <path class="cls-1"
        d="M492.16,515.79l-42.79,10.28,1.34,63.96c4.21,4.22,69.52-12.42,73.83-19.36,1.21-1.94,1.09-4.02-.07-5.94l-32.31-48.94Z" />
      <path class="cls-1"
        d="M421.74,530.3c-1.89-2.72-16.48-1.03-20.95-1.41-6.22-.54-19.92-4.26-25.06-2.69-4.86,1.49-20.53,37.07-25.62,43.02l-.1,4.43c22.26,11.04,47.78,16.69,72.48,17.21,3.67-19.56-1.15-40.43-.75-60.57Z" />
      <path class="cls-1"
        d="M283.15,528.04c11.96,12.27,25,23.67,40.03,32.16l24.53-42.5-49.67-27.59-30.5,20.16c4.55,6.48,10.14,12.15,15.62,17.77Z" />
      <path class="cls-1"
        d="M562.48,504.33c-4.27-3.78-19.7-21.18-24.28-19.99-3.62,6.01-22.7,13.41-21.72,19.63l34.82,51.4c12.52-8.22,24.57-17.57,34.68-28.68.35-4.33-19.42-18.74-23.51-22.36Z" />
      <path class="cls-1"
        d="M614.52,485.87l-41.11-35.78-3.56.73-10.25,13.29,42.68,39.23c1.05.31,2.2.63,3.24,0,.94-.42,9.94-15.69,9-17.47Z" />
      <path class="cls-1"
        d="M283.21,420.17c0,10.78,8.68,19.46,19.46,19.46s19.56-8.68,19.56-19.46-8.79-19.46-19.56-19.46c-.52,0-.94,0-1.46.21-4.18-15.38-4.29-46.66-3.45-56.39,1.78-19.25,14.96-53.14,29.5-68,.52-.52,1.05-1.05,1.57-1.36,2.93,1.78,6.28,2.82,9.94,2.82,10.78,0,19.56-8.68,19.56-19.46,0-2.51-.42-4.81-1.36-7.01,0-.1.1-.31.21-.42,2.51-3.14,16.63-9,16.74-9.1,34.84-14.23,75.84-12.76,107.02,3.98,7.32,3.87,12.45,7.11,15.27,9.62-.94,2.09-1.36,4.5-1.36,6.9,0,10.78,8.68,19.56,19.46,19.56s19.46-8.79,19.46-19.56-8.68-19.46-19.46-19.46c-5.34,0-10.04,2.09-13.6,5.65-3.24-1.67-7.11-4.29-11.4-7.01-5.23-3.45-10.67-6.9-14.33-8.47-31.59-12.87-69.78-12.87-102.21.1-2.09.84-6.7,3.45-10.77,5.75-5.34,3.03-8.16,4.5-9.94,5.23-3.45-3.24-8.16-5.23-13.29-5.23-10.67,0-19.46,8.68-19.46,19.46,0,4.08,1.26,7.74,3.35,10.88-1.57,2.72-4.29,5.96-7.43,9.73-2.62,3.24-5.33,6.49-6.7,8.68-15.69,25.53-22.18,56.7-19.35,92.48.31,3.66,1.46,8.47,2.72,13.18.73,3.35,1.57,6.49,2.09,9.42-6.38,3.03-10.78,9.62-10.78,17.26Z" />
    </g>
  </g>
  <g id="santa-hat" transform="translate(-450 -40) scale(2) rotate(-12 357.71 85)">
    <!-- Красная часть -->
    <path
      d="M240 120
       C285 55, 360 25, 470 55
       L505 120
       Z"
      fill="#E53935"
    />
    <!-- Белый кант -->
    <rect x="235" y="110" width="290" height="60" rx="28" fill="#FFFFFF" />
    <!-- Помпон -->
    <circle cx="468" cy="58" r="22" fill="#FFFFFF" />
  </g>
</svg>